<?xml version="1.0" encoding="UTF-8" standalone="no"?>
<!DOCTYPE svg PUBLIC "-//W3C//DTD SVG 1.1//EN"
 "http://www.w3.org/Graphics/SVG/1.1/DTD/svg11.dtd">
<!-- Generated by graphviz version 2.40.1 (20161225.0304)
 -->
<!-- Title: FST Pages: 1 -->
<svg width="388pt" height="59pt"
 viewBox="0.00 0.00 388.12 58.81" xmlns="http://www.w3.org/2000/svg" xmlns:xlink="http://www.w3.org/1999/xlink">
<g id="graph0" class="graph" transform="scale(1 1) rotate(0) translate(4 54.8146)">
<title>FST</title>
<polygon fill="#ffffff" stroke="transparent" points="-4,4 -4,-54.8146 384.1183,-54.8146 384.1183,4 -4,4"/>
<!-- 0 -->
<g id="node1" class="node">
<title>0</title>
<ellipse fill="none" stroke="#000000" stroke-width="2" cx="18" cy="-25.4073" rx="18" ry="18"/>
<text text-anchor="middle" x="18" y="-21.2073" font-family="Times,serif" font-size="14.00" fill="#000000">0</text>
</g>
<!-- 1 -->
<g id="node2" class="node">
<title>1</title>
<ellipse fill="none" stroke="#000000" cx="101.1035" cy="-25.4073" rx="18" ry="18"/>
<text text-anchor="middle" x="101.1035" y="-21.2073" font-family="Times,serif" font-size="14.00" fill="#000000">1</text>
</g>
<!-- 0&#45;&gt;1 -->
<g id="edge1" class="edge">
<title>0&#45;&gt;1</title>
<path fill="none" stroke="#000000" d="M36.0322,-25.4073C46.7395,-25.4073 60.5536,-25.4073 72.6975,-25.4073"/>
<polygon fill="#000000" stroke="#000000" points="72.8195,-28.9074 82.8195,-25.4073 72.8195,-21.9074 72.8195,-28.9074"/>
<text text-anchor="middle" x="59.5518" y="-28.2073" font-family="Times,serif" font-size="14.00" fill="#000000">c:d</text>
</g>
<!-- 2 -->
<g id="node3" class="node">
<title>2</title>
<ellipse fill="none" stroke="#000000" cx="184.207" cy="-25.4073" rx="18" ry="18"/>
<text text-anchor="middle" x="184.207" y="-21.2073" font-family="Times,serif" font-size="14.00" fill="#000000">2</text>
</g>
<!-- 1&#45;&gt;2 -->
<g id="edge2" class="edge">
<title>1&#45;&gt;2</title>
<path fill="none" stroke="#000000" d="M119.1357,-25.4073C129.843,-25.4073 143.6571,-25.4073 155.8011,-25.4073"/>
<polygon fill="#000000" stroke="#000000" points="155.9231,-28.9074 165.923,-25.4073 155.923,-21.9074 155.9231,-28.9074"/>
<text text-anchor="middle" x="142.6553" y="-28.2073" font-family="Times,serif" font-size="14.00" fill="#000000">a:o</text>
</g>
<!-- 3 -->
<g id="node4" class="node">
<title>3</title>
<ellipse fill="none" stroke="#000000" cx="264.9863" cy="-25.4073" rx="18" ry="18"/>
<text text-anchor="middle" x="264.9863" y="-21.2073" font-family="Times,serif" font-size="14.00" fill="#000000">3</text>
</g>
<!-- 2&#45;&gt;3 -->
<g id="edge3" class="edge">
<title>2&#45;&gt;3</title>
<path fill="none" stroke="#000000" d="M202.5371,-25.4073C212.5554,-25.4073 225.1857,-25.4073 236.4619,-25.4073"/>
<polygon fill="#000000" stroke="#000000" points="236.7288,-28.9074 246.7288,-25.4073 236.7288,-21.9074 236.7288,-28.9074"/>
<text text-anchor="middle" x="224.5967" y="-28.2073" font-family="Times,serif" font-size="14.00" fill="#000000">t:g</text>
</g>
<!-- 4 -->
<g id="node5" class="node">
<title>4</title>
<ellipse fill="none" stroke="#000000" cx="354.711" cy="-25.4073" rx="21.3294" ry="21.3294"/>
<ellipse fill="none" stroke="#000000" cx="354.711" cy="-25.4073" rx="25.3149" ry="25.3149"/>
<text text-anchor="middle" x="354.711" y="-21.2073" font-family="Times,serif" font-size="14.00" fill="#000000">4/1</text>
</g>
<!-- 3&#45;&gt;4 -->
<g id="edge4" class="edge">
<title>3&#45;&gt;4</title>
<path fill="none" stroke="#000000" d="M283.1435,-25.4073C293.4648,-25.4073 306.7512,-25.4073 319.0686,-25.4073"/>
<polygon fill="#000000" stroke="#000000" points="319.1009,-28.9074 329.1008,-25.4073 319.1008,-21.9074 319.1009,-28.9074"/>
<text text-anchor="middle" x="306.145" y="-28.2073" font-family="Times,serif" font-size="14.00" fill="#000000">ε:ε</text>
</g>
<!-- 3&#45;&gt;4 -->
<g id="edge5" class="edge">
<title>3&#45;&gt;4</title>
<path fill="none" stroke="#000000" d="M280.099,-15.107C285.5007,-11.9957 291.7891,-8.9875 297.9863,-7.4073 306.2428,-5.3019 315.0664,-6.421 323.2349,-8.9056"/>
<polygon fill="#000000" stroke="#000000" points="322.1994,-12.2552 332.7917,-12.4884 324.6567,-5.7006 322.1994,-12.2552"/>
<text text-anchor="middle" x="306.145" y="-10.2073" font-family="Times,serif" font-size="14.00" fill="#000000">s:s</text>
</g>
</g>
</svg>
