<?xml version="1.0" encoding="UTF-8" standalone="no"?>
<!DOCTYPE svg PUBLIC "-//W3C//DTD SVG 1.1//EN"
 "http://www.w3.org/Graphics/SVG/1.1/DTD/svg11.dtd">
<!-- Generated by graphviz version 2.40.1 (20161225.0304)
 -->
<!-- Title: FST Pages: 1 -->
<svg width="306pt" height="59pt"
 viewBox="0.00 0.00 305.80 58.81" xmlns="http://www.w3.org/2000/svg" xmlns:xlink="http://www.w3.org/1999/xlink">
<g id="graph0" class="graph" transform="scale(1 1) rotate(0) translate(4 54.8146)">
<title>FST</title>
<polygon fill="#ffffff" stroke="transparent" points="-4,4 -4,-54.8146 301.8009,-54.8146 301.8009,4 -4,4"/>
<!-- 0 -->
<g id="node1" class="node">
<title>0</title>
<ellipse fill="none" stroke="#000000" stroke-width="2" cx="18" cy="-25.4073" rx="18" ry="18"/>
<text text-anchor="middle" x="18" y="-21.2073" font-family="Times,serif" font-size="14.00" fill="#000000">0</text>
</g>
<!-- 1 -->
<g id="node2" class="node">
<title>1</title>
<ellipse fill="none" stroke="#000000" cx="101.1035" cy="-25.4073" rx="18" ry="18"/>
<text text-anchor="middle" x="101.1035" y="-21.2073" font-family="Times,serif" font-size="14.00" fill="#000000">1</text>
</g>
<!-- 0&#45;&gt;1 -->
<g id="edge1" class="edge">
<title>0&#45;&gt;1</title>
<path fill="none" stroke="#000000" d="M36.0322,-25.4073C46.7395,-25.4073 60.5536,-25.4073 72.6975,-25.4073"/>
<polygon fill="#000000" stroke="#000000" points="72.8195,-28.9074 82.8195,-25.4073 72.8195,-21.9074 72.8195,-28.9074"/>
<text text-anchor="middle" x="59.5518" y="-28.2073" font-family="Times,serif" font-size="14.00" fill="#000000">c:d</text>
</g>
<!-- 2 -->
<g id="node3" class="node">
<title>2</title>
<ellipse fill="none" stroke="#000000" cx="184.207" cy="-25.4073" rx="18" ry="18"/>
<text text-anchor="middle" x="184.207" y="-21.2073" font-family="Times,serif" font-size="14.00" fill="#000000">2</text>
</g>
<!-- 1&#45;&gt;2 -->
<g id="edge2" class="edge">
<title>1&#45;&gt;2</title>
<path fill="none" stroke="#000000" d="M119.1357,-25.4073C129.843,-25.4073 143.6571,-25.4073 155.8011,-25.4073"/>
<polygon fill="#000000" stroke="#000000" points="155.9231,-28.9074 165.923,-25.4073 155.923,-21.9074 155.9231,-28.9074"/>
<text text-anchor="middle" x="142.6553" y="-28.2073" font-family="Times,serif" font-size="14.00" fill="#000000">a:o</text>
</g>
<!-- 3 -->
<g id="node4" class="node">
<title>3</title>
<ellipse fill="none" stroke="#000000" cx="272.3936" cy="-25.4073" rx="21.3294" ry="21.3294"/>
<ellipse fill="none" stroke="#000000" cx="272.3936" cy="-25.4073" rx="25.3149" ry="25.3149"/>
<text text-anchor="middle" x="272.3936" y="-21.2073" font-family="Times,serif" font-size="14.00" fill="#000000">3/1</text>
</g>
<!-- 2&#45;&gt;3 -->
<g id="edge3" class="edge">
<title>2&#45;&gt;3</title>
<path fill="none" stroke="#000000" d="M202.4793,-25.4073C212.3904,-25.4073 224.9888,-25.4073 236.7532,-25.4073"/>
<polygon fill="#000000" stroke="#000000" points="236.7883,-28.9074 246.7883,-25.4073 236.7883,-21.9074 236.7883,-28.9074"/>
<text text-anchor="middle" x="224.5967" y="-28.2073" font-family="Times,serif" font-size="14.00" fill="#000000">t:g</text>
</g>
</g>
</svg>
