<?xml version="1.0" encoding="UTF-8" standalone="no"?>
<!DOCTYPE svg PUBLIC "-//W3C//DTD SVG 1.1//EN"
 "http://www.w3.org/Graphics/SVG/1.1/DTD/svg11.dtd">
<!-- Generated by graphviz version 2.40.1 (20161225.0304)
 -->
<!-- Title: FST Pages: 1 -->
<svg width="553pt" height="81pt"
 viewBox="0.00 0.00 552.77 81.41" xmlns="http://www.w3.org/2000/svg" xmlns:xlink="http://www.w3.org/1999/xlink">
<g id="graph0" class="graph" transform="scale(1 1) rotate(0) translate(4 77.4073)">
<title>FST</title>
<polygon fill="#ffffff" stroke="transparent" points="-4,4 -4,-77.4073 548.7736,-77.4073 548.7736,4 -4,4"/>
<!-- 0 -->
<g id="node1" class="node">
<title>0</title>
<ellipse fill="none" stroke="#000000" stroke-width="2" cx="18" cy="-25.4073" rx="18" ry="18"/>
<text text-anchor="middle" x="18" y="-21.2073" font-family="Times,serif" font-size="14.00" fill="#000000">0</text>
</g>
<!-- 1 -->
<g id="node2" class="node">
<title>1</title>
<ellipse fill="none" stroke="#000000" cx="104.2139" cy="-25.4073" rx="18" ry="18"/>
<text text-anchor="middle" x="104.2139" y="-21.2073" font-family="Times,serif" font-size="14.00" fill="#000000">1</text>
</g>
<!-- 0&#45;&gt;1 -->
<g id="edge1" class="edge">
<title>0&#45;&gt;1</title>
<path fill="none" stroke="#000000" d="M36.2837,-25.4073C47.714,-25.4073 62.6767,-25.4073 75.649,-25.4073"/>
<polygon fill="#000000" stroke="#000000" points="75.9565,-28.9074 85.9565,-25.4073 75.9564,-21.9074 75.9565,-28.9074"/>
<text text-anchor="middle" x="61.1069" y="-28.2073" font-family="Times,serif" font-size="14.00" fill="#000000">c:w</text>
</g>
<!-- 2 -->
<g id="node3" class="node">
<title>2</title>
<ellipse fill="none" stroke="#000000" cx="187.3174" cy="-25.4073" rx="18" ry="18"/>
<text text-anchor="middle" x="187.3174" y="-21.2073" font-family="Times,serif" font-size="14.00" fill="#000000">2</text>
</g>
<!-- 1&#45;&gt;2 -->
<g id="edge2" class="edge">
<title>1&#45;&gt;2</title>
<path fill="none" stroke="#000000" d="M122.2461,-25.4073C132.9534,-25.4073 146.7675,-25.4073 158.9114,-25.4073"/>
<polygon fill="#000000" stroke="#000000" points="159.0334,-28.9074 169.0334,-25.4073 159.0333,-21.9074 159.0334,-28.9074"/>
<text text-anchor="middle" x="145.7656" y="-28.2073" font-family="Times,serif" font-size="14.00" fill="#000000">a:o</text>
</g>
<!-- 3 -->
<g id="node4" class="node">
<title>3</title>
<ellipse fill="none" stroke="#000000" cx="264.9863" cy="-25.4073" rx="18" ry="18"/>
<text text-anchor="middle" x="264.9863" y="-21.2073" font-family="Times,serif" font-size="14.00" fill="#000000">3</text>
</g>
<!-- 2&#45;&gt;3 -->
<g id="edge3" class="edge">
<title>2&#45;&gt;3</title>
<path fill="none" stroke="#000000" d="M205.3314,-25.4073C214.5776,-25.4073 226.0594,-25.4073 236.4734,-25.4073"/>
<polygon fill="#000000" stroke="#000000" points="236.801,-28.9074 246.8009,-25.4073 236.8009,-21.9074 236.801,-28.9074"/>
<text text-anchor="middle" x="226.1519" y="-28.2073" font-family="Times,serif" font-size="14.00" fill="#000000">t:l</text>
</g>
<!-- 5 -->
<g id="node5" class="node">
<title>5</title>
<ellipse fill="none" stroke="#000000" cx="348.0898" cy="-55.4073" rx="18" ry="18"/>
<text text-anchor="middle" x="348.0898" y="-51.2073" font-family="Times,serif" font-size="14.00" fill="#000000">5</text>
</g>
<!-- 3&#45;&gt;5 -->
<g id="edge4" class="edge">
<title>3&#45;&gt;5</title>
<path fill="none" stroke="#000000" d="M282.2054,-31.6233C293.4595,-35.686 308.3906,-41.076 321.1929,-45.6976"/>
<polygon fill="#000000" stroke="#000000" points="320.2985,-49.0957 330.8928,-49.1992 322.6754,-42.5116 320.2985,-49.0957"/>
<text text-anchor="middle" x="306.5381" y="-45.2073" font-family="Times,serif" font-size="14.00" fill="#000000">ε:v</text>
</g>
<!-- 4 -->
<g id="node6" class="node">
<title>4</title>
<ellipse fill="none" stroke="#000000" cx="519.3663" cy="-25.4073" rx="21.3294" ry="21.3294"/>
<ellipse fill="none" stroke="#000000" cx="519.3663" cy="-25.4073" rx="25.3149" ry="25.3149"/>
<text text-anchor="middle" x="519.3663" y="-21.2073" font-family="Times,serif" font-size="14.00" fill="#000000">4/2</text>
</g>
<!-- 3&#45;&gt;4 -->
<g id="edge5" class="edge">
<title>3&#45;&gt;4</title>
<path fill="none" stroke="#000000" d="M283.2807,-25.4073C325.1463,-25.4073 428.5428,-25.4073 483.5707,-25.4073"/>
<polygon fill="#000000" stroke="#000000" points="483.8988,-28.9074 493.8988,-25.4073 483.8987,-21.9074 483.8988,-28.9074"/>
<text text-anchor="middle" x="389.2485" y="-28.2073" font-family="Times,serif" font-size="14.00" fill="#000000">ε:f</text>
</g>
<!-- 6 -->
<g id="node7" class="node">
<title>6</title>
<ellipse fill="none" stroke="#000000" cx="430.4072" cy="-55.4073" rx="18" ry="18"/>
<text text-anchor="middle" x="430.4072" y="-51.2073" font-family="Times,serif" font-size="14.00" fill="#000000">6</text>
</g>
<!-- 5&#45;&gt;6 -->
<g id="edge6" class="edge">
<title>5&#45;&gt;6</title>
<path fill="none" stroke="#000000" d="M366.3587,-55.4073C376.8029,-55.4073 390.1304,-55.4073 401.9206,-55.4073"/>
<polygon fill="#000000" stroke="#000000" points="402.1894,-58.9074 412.1894,-55.4073 402.1894,-51.9074 402.1894,-58.9074"/>
<text text-anchor="middle" x="389.2485" y="-58.2073" font-family="Times,serif" font-size="14.00" fill="#000000">ε:e</text>
</g>
<!-- 6&#45;&gt;4 -->
<g id="edge7" class="edge">
<title>6&#45;&gt;4</title>
<path fill="none" stroke="#000000" d="M447.5594,-49.623C458.342,-45.9867 472.6227,-41.1708 485.6073,-36.7919"/>
<polygon fill="#000000" stroke="#000000" points="486.8474,-40.0675 495.2047,-33.5554 484.6105,-33.4345 486.8474,-40.0675"/>
<text text-anchor="middle" x="471.1831" y="-46.2073" font-family="Times,serif" font-size="14.00" fill="#000000">ε:s</text>
</g>
</g>
</svg>
