<?xml version="1.0" encoding="UTF-8" standalone="no"?>
<!DOCTYPE svg PUBLIC "-//W3C//DTD SVG 1.1//EN"
 "http://www.w3.org/Graphics/SVG/1.1/DTD/svg11.dtd">
<!-- Generated by graphviz version 2.40.1 (20161225.0304)
 -->
<!-- Title: FST Pages: 1 -->
<svg width="557pt" height="74pt"
 viewBox="0.00 0.00 557.46 74.41" xmlns="http://www.w3.org/2000/svg" xmlns:xlink="http://www.w3.org/1999/xlink">
<g id="graph0" class="graph" transform="scale(1 1) rotate(0) translate(4 70.4073)">
<title>FST</title>
<polygon fill="#ffffff" stroke="transparent" points="-4,4 -4,-70.4073 553.4562,-70.4073 553.4562,4 -4,4"/>
<!-- 0 -->
<g id="node1" class="node">
<title>0</title>
<ellipse fill="none" stroke="#000000" stroke-width="2" cx="18" cy="-41" rx="18" ry="18"/>
<text text-anchor="middle" x="18" y="-36.8" font-family="Times,serif" font-size="14.00" fill="#000000">0</text>
</g>
<!-- 1 -->
<g id="node2" class="node">
<title>1</title>
<ellipse fill="none" stroke="#000000" cx="105" cy="-41" rx="18" ry="18"/>
<text text-anchor="middle" x="105" y="-36.8" font-family="Times,serif" font-size="14.00" fill="#000000">1</text>
</g>
<!-- 0&#45;&gt;1 -->
<g id="edge1" class="edge">
<title>0&#45;&gt;1</title>
<path fill="none" stroke="#000000" d="M36.0265,-41C47.8082,-41 63.4393,-41 76.8419,-41"/>
<polygon fill="#000000" stroke="#000000" points="76.9967,-44.5001 86.9966,-41 76.9966,-37.5001 76.9967,-44.5001"/>
<text text-anchor="middle" x="61.5" y="-43.8" font-family="Times,serif" font-size="14.00" fill="#000000">d:w</text>
</g>
<!-- 2 -->
<g id="node3" class="node">
<title>2</title>
<ellipse fill="none" stroke="#000000" cx="188.8896" cy="-41" rx="18" ry="18"/>
<text text-anchor="middle" x="188.8896" y="-36.8" font-family="Times,serif" font-size="14.00" fill="#000000">2</text>
</g>
<!-- 1&#45;&gt;2 -->
<g id="edge2" class="edge">
<title>1&#45;&gt;2</title>
<path fill="none" stroke="#000000" d="M123.2028,-41C134.0859,-41 148.1486,-41 160.4684,-41"/>
<polygon fill="#000000" stroke="#000000" points="160.7224,-44.5001 170.7224,-41 160.7223,-37.5001 160.7224,-44.5001"/>
<text text-anchor="middle" x="146.9448" y="-43.8" font-family="Times,serif" font-size="14.00" fill="#000000">o:o</text>
</g>
<!-- 3 -->
<g id="node4" class="node">
<title>3</title>
<ellipse fill="none" stroke="#000000" cx="269.6689" cy="-41" rx="18" ry="18"/>
<text text-anchor="middle" x="269.6689" y="-36.8" font-family="Times,serif" font-size="14.00" fill="#000000">3</text>
</g>
<!-- 2&#45;&gt;3 -->
<g id="edge3" class="edge">
<title>2&#45;&gt;3</title>
<path fill="none" stroke="#000000" d="M207.2197,-41C217.238,-41 229.8683,-41 241.1445,-41"/>
<polygon fill="#000000" stroke="#000000" points="241.4114,-44.5001 251.4114,-41 241.4114,-37.5001 241.4114,-44.5001"/>
<text text-anchor="middle" x="229.2793" y="-43.8" font-family="Times,serif" font-size="14.00" fill="#000000">g:l</text>
</g>
<!-- 4 -->
<g id="node5" class="node">
<title>4</title>
<ellipse fill="none" stroke="#000000" cx="524.0489" cy="-41" rx="21.3294" ry="21.3294"/>
<ellipse fill="none" stroke="#000000" cx="524.0489" cy="-41" rx="25.3149" ry="25.3149"/>
<text text-anchor="middle" x="524.0489" y="-36.8" font-family="Times,serif" font-size="14.00" fill="#000000">4/1</text>
</g>
<!-- 3&#45;&gt;4 -->
<g id="edge4" class="edge">
<title>3&#45;&gt;4</title>
<path fill="none" stroke="#000000" d="M286.9964,-46.0188C292.0088,-47.2469 297.5179,-48.3845 302.6689,-49 310.2168,-49.9018 312.1709,-49.0232 319.7725,-49 392.6042,-48.7778 411.0966,-54.4603 483.6416,-48 485.348,-47.848 487.0906,-47.6628 488.8476,-47.4519"/>
<polygon fill="#000000" stroke="#000000" points="489.5089,-50.8931 498.9145,-46.016 488.5204,-43.9632 489.5089,-50.8931"/>
<text text-anchor="middle" x="393.9312" y="-52.8" font-family="Times,serif" font-size="14.00" fill="#000000">ε:f</text>
</g>
<!-- 5 -->
<g id="node6" class="node">
<title>5</title>
<ellipse fill="none" stroke="#000000" cx="352.7725" cy="-18" rx="18" ry="18"/>
<text text-anchor="middle" x="352.7725" y="-13.8" font-family="Times,serif" font-size="14.00" fill="#000000">5</text>
</g>
<!-- 3&#45;&gt;5 -->
<g id="edge5" class="edge">
<title>3&#45;&gt;5</title>
<path fill="none" stroke="#000000" d="M287.2931,-36.1223C298.311,-33.0729 312.7338,-29.0812 325.2382,-25.6205"/>
<polygon fill="#000000" stroke="#000000" points="326.4696,-28.9113 335.1737,-22.8707 324.6024,-22.1649 326.4696,-28.9113"/>
<text text-anchor="middle" x="311.2207" y="-33.8" font-family="Times,serif" font-size="14.00" fill="#000000">ε:v</text>
</g>
<!-- 6 -->
<g id="node7" class="node">
<title>6</title>
<ellipse fill="none" stroke="#000000" cx="435.0898" cy="-18" rx="18" ry="18"/>
<text text-anchor="middle" x="435.0898" y="-13.8" font-family="Times,serif" font-size="14.00" fill="#000000">6</text>
</g>
<!-- 5&#45;&gt;6 -->
<g id="edge6" class="edge">
<title>5&#45;&gt;6</title>
<path fill="none" stroke="#000000" d="M371.0414,-18C381.4855,-18 394.813,-18 406.6033,-18"/>
<polygon fill="#000000" stroke="#000000" points="406.8721,-21.5001 416.872,-18 406.872,-14.5001 406.8721,-21.5001"/>
<text text-anchor="middle" x="393.9312" y="-20.8" font-family="Times,serif" font-size="14.00" fill="#000000">ε:e</text>
</g>
<!-- 6&#45;&gt;4 -->
<g id="edge7" class="edge">
<title>6&#45;&gt;4</title>
<path fill="none" stroke="#000000" d="M452.6653,-22.5441C463.2133,-25.2712 476.9947,-28.8343 489.6323,-32.1017"/>
<polygon fill="#000000" stroke="#000000" points="488.8808,-35.5225 499.4386,-34.6371 490.6331,-28.7453 488.8808,-35.5225"/>
<text text-anchor="middle" x="475.8657" y="-32.8" font-family="Times,serif" font-size="14.00" fill="#000000">ε:s</text>
</g>
</g>
</svg>
