<?xml version="1.0" encoding="UTF-8" standalone="no"?>
<!DOCTYPE svg PUBLIC "-//W3C//DTD SVG 1.1//EN"
 "http://www.w3.org/Graphics/SVG/1.1/DTD/svg11.dtd">
<!-- Generated by graphviz version 2.40.1 (20161225.0304)
 -->
<!-- Title: FST Pages: 1 -->
<svg width="612pt" height="110pt"
 viewBox="0.00 0.00 612.00 109.96" xmlns="http://www.w3.org/2000/svg" xmlns:xlink="http://www.w3.org/1999/xlink">
<g id="graph0" class="graph" transform="scale(.7668 .7668) rotate(0) translate(4 139.4073)">
<title>FST</title>
<polygon fill="#ffffff" stroke="transparent" points="-4,4 -4,-139.4073 794.1544,-139.4073 794.1544,4 -4,4"/>
<!-- 0 -->
<g id="node1" class="node">
<title>0</title>
<ellipse fill="none" stroke="#000000" stroke-width="2" cx="18" cy="-49" rx="18" ry="18"/>
<text text-anchor="middle" x="18" y="-44.8" font-family="Times,serif" font-size="14.00" fill="#000000">0</text>
</g>
<!-- 1 -->
<g id="node2" class="node">
<title>1</title>
<ellipse fill="none" stroke="#000000" cx="108.8896" cy="-49" rx="18" ry="18"/>
<text text-anchor="middle" x="108.8896" y="-44.8" font-family="Times,serif" font-size="14.00" fill="#000000">1</text>
</g>
<!-- 0&#45;&gt;1 -->
<g id="edge1" class="edge">
<title>0&#45;&gt;1</title>
<path fill="none" stroke="#000000" d="M36.3929,-49C49.0414,-49 66.0858,-49 80.47,-49"/>
<polygon fill="#000000" stroke="#000000" points="80.8343,-52.5001 90.8343,-49 80.8343,-45.5001 80.8343,-52.5001"/>
<text text-anchor="middle" x="63.4448" y="-51.8" font-family="Times,serif" font-size="14.00" fill="#000000">m:w</text>
</g>
<!-- 2 -->
<g id="node3" class="node">
<title>2</title>
<ellipse fill="none" stroke="#000000" cx="191.9932" cy="-49" rx="18" ry="18"/>
<text text-anchor="middle" x="191.9932" y="-44.8" font-family="Times,serif" font-size="14.00" fill="#000000">2</text>
</g>
<!-- 1&#45;&gt;2 -->
<g id="edge2" class="edge">
<title>1&#45;&gt;2</title>
<path fill="none" stroke="#000000" d="M126.9219,-49C137.6292,-49 151.4432,-49 163.5872,-49"/>
<polygon fill="#000000" stroke="#000000" points="163.7092,-52.5001 173.7092,-49 163.7091,-45.5001 163.7092,-52.5001"/>
<text text-anchor="middle" x="150.4414" y="-51.8" font-family="Times,serif" font-size="14.00" fill="#000000">e:o</text>
</g>
<!-- 3 -->
<g id="node4" class="node">
<title>3</title>
<ellipse fill="none" stroke="#000000" cx="275.8828" cy="-49" rx="18" ry="18"/>
<text text-anchor="middle" x="275.8828" y="-44.8" font-family="Times,serif" font-size="14.00" fill="#000000">3</text>
</g>
<!-- 2&#45;&gt;3 -->
<g id="edge3" class="edge">
<title>2&#45;&gt;3</title>
<path fill="none" stroke="#000000" d="M210.196,-49C221.0791,-49 235.1418,-49 247.4615,-49"/>
<polygon fill="#000000" stroke="#000000" points="247.7156,-52.5001 257.7155,-49 247.7155,-45.5001 247.7156,-52.5001"/>
<text text-anchor="middle" x="233.938" y="-51.8" font-family="Times,serif" font-size="14.00" fill="#000000">o:o</text>
</g>
<!-- 4 -->
<g id="node5" class="node">
<title>4</title>
<ellipse fill="none" stroke="#000000" cx="360.5449" cy="-49" rx="18" ry="18"/>
<text text-anchor="middle" x="360.5449" y="-44.8" font-family="Times,serif" font-size="14.00" fill="#000000">4</text>
</g>
<!-- 3&#45;&gt;4 -->
<g id="edge4" class="edge">
<title>3&#45;&gt;4</title>
<path fill="none" stroke="#000000" d="M294.2532,-49C305.4235,-49 319.9128,-49 332.4952,-49"/>
<polygon fill="#000000" stroke="#000000" points="332.5012,-52.5001 342.5012,-49 332.5012,-45.5001 332.5012,-52.5001"/>
<text text-anchor="middle" x="318.2139" y="-51.8" font-family="Times,serif" font-size="14.00" fill="#000000">w:f</text>
</g>
<!-- 5 -->
<g id="node6" class="node">
<title>5</title>
<ellipse fill="none" stroke="#000000" cx="512.3262" cy="-110" rx="21.3294" ry="21.3294"/>
<ellipse fill="none" stroke="#000000" cx="512.3262" cy="-110" rx="25.3149" ry="25.3149"/>
<text text-anchor="middle" x="512.3262" y="-105.8" font-family="Times,serif" font-size="14.00" fill="#000000">5/1</text>
</g>
<!-- 4&#45;&gt;5 -->
<g id="edge5" class="edge">
<title>4&#45;&gt;5</title>
<path fill="none" stroke="#000000" d="M376.0761,-58.1037C381.5114,-61.1191 387.714,-64.3727 393.5449,-67 421.3635,-79.5346 454.0272,-91.145 478.0537,-99.1337"/>
<polygon fill="#000000" stroke="#000000" points="477.1898,-102.5339 487.7826,-102.3279 479.3734,-95.8831 477.1898,-102.5339"/>
<text text-anchor="middle" x="432.7319" y="-98.8" font-family="Times,serif" font-size="14.00" fill="#000000">ε:ε/0.5</text>
</g>
<!-- 6 -->
<g id="node7" class="node">
<title>6</title>
<ellipse fill="none" stroke="#000000" cx="512.3262" cy="-49" rx="18" ry="18"/>
<text text-anchor="middle" x="512.3262" y="-44.8" font-family="Times,serif" font-size="14.00" fill="#000000">6</text>
</g>
<!-- 4&#45;&gt;6 -->
<g id="edge6" class="edge">
<title>4&#45;&gt;6</title>
<path fill="none" stroke="#000000" d="M378.5523,-49C404.5425,-49 452.8324,-49 483.7304,-49"/>
<polygon fill="#000000" stroke="#000000" points="483.869,-52.5001 493.869,-49 483.8689,-45.5001 483.869,-52.5001"/>
<text text-anchor="middle" x="432.7319" y="-51.8" font-family="Times,serif" font-size="14.00" fill="#000000">ε:&lt;space&gt;/0.5</text>
</g>
<!-- 7 -->
<g id="node8" class="node">
<title>7</title>
<ellipse fill="none" stroke="#000000" cx="605.9474" cy="-52" rx="18" ry="18"/>
<text text-anchor="middle" x="605.9474" y="-47.8" font-family="Times,serif" font-size="14.00" fill="#000000">7</text>
</g>
<!-- 6&#45;&gt;7 -->
<g id="edge7" class="edge">
<title>6&#45;&gt;7</title>
<path fill="none" stroke="#000000" d="M530.3773,-49.5784C543.8471,-50.0101 562.504,-50.6079 577.9095,-51.1016"/>
<polygon fill="#000000" stroke="#000000" points="577.8447,-54.6012 587.9517,-51.4233 578.069,-47.6048 577.8447,-54.6012"/>
<text text-anchor="middle" x="562.8404" y="-52.8" font-family="Times,serif" font-size="14.00" fill="#000000">ε:w</text>
</g>
<!-- 8 -->
<g id="node9" class="node">
<title>8</title>
<ellipse fill="none" stroke="#000000" cx="689.0509" cy="-50" rx="18" ry="18"/>
<text text-anchor="middle" x="689.0509" y="-45.8" font-family="Times,serif" font-size="14.00" fill="#000000">8</text>
</g>
<!-- 7&#45;&gt;8 -->
<g id="edge8" class="edge">
<title>7&#45;&gt;8</title>
<path fill="none" stroke="#000000" d="M623.9796,-51.566C634.7607,-51.3066 648.6917,-50.9713 660.8959,-50.6776"/>
<polygon fill="#000000" stroke="#000000" points="661.141,-54.1728 671.0539,-50.4331 660.9725,-47.1748 661.141,-54.1728"/>
<text text-anchor="middle" x="647.4991" y="-53.8" font-family="Times,serif" font-size="14.00" fill="#000000">ε:o</text>
</g>
<!-- 9 -->
<g id="node10" class="node">
<title>9</title>
<ellipse fill="none" stroke="#000000" cx="772.1544" cy="-18" rx="18" ry="18"/>
<text text-anchor="middle" x="772.1544" y="-13.8" font-family="Times,serif" font-size="14.00" fill="#000000">9</text>
</g>
<!-- 8&#45;&gt;9 -->
<g id="edge9" class="edge">
<title>8&#45;&gt;9</title>
<path fill="none" stroke="#000000" d="M705.8681,-43.5243C717.282,-39.1293 732.6107,-33.2268 745.6524,-28.2049"/>
<polygon fill="#000000" stroke="#000000" points="747.0026,-31.4356 755.077,-24.5759 744.4872,-24.9031 747.0026,-31.4356"/>
<text text-anchor="middle" x="730.6027" y="-38.8" font-family="Times,serif" font-size="14.00" fill="#000000">ε:o</text>
</g>
<!-- 9&#45;&gt;4 -->
<g id="edge10" class="edge">
<title>9&#45;&gt;4</title>
<path fill="none" stroke="#000000" d="M754.8315,-12.6722C738.1485,-8.0178 712.1184,-2 689.0509,-2 512.3262,-2 512.3262,-2 512.3262,-2 466.2285,-2 415.6378,-22.0272 386.0625,-35.9352"/>
<polygon fill="#000000" stroke="#000000" points="384.3531,-32.8741 376.8752,-40.3795 387.4014,-39.1755 384.3531,-32.8741"/>
<text text-anchor="middle" x="605.9474" y="-4.8" font-family="Times,serif" font-size="14.00" fill="#000000">ε:f</text>
</g>
</g>
</svg>
