<?xml version="1.0" encoding="UTF-8" standalone="no"?>
<!DOCTYPE svg PUBLIC "-//W3C//DTD SVG 1.1//EN"
 "http://www.w3.org/Graphics/SVG/1.1/DTD/svg11.dtd">
<!-- Generated by graphviz version 2.40.1 (20161225.0304)
 -->
<!-- Title: FST Pages: 1 -->
<svg width="420pt" height="225pt"
 viewBox="0.00 0.00 420.16 225.24" xmlns="http://www.w3.org/2000/svg" xmlns:xlink="http://www.w3.org/1999/xlink">
<g id="graph0" class="graph" transform="scale(1 1) rotate(0) translate(4 221.2363)">
<title>FST</title>
<polygon fill="#ffffff" stroke="transparent" points="-4,4 -4,-221.2363 416.1595,-221.2363 416.1595,4 -4,4"/>
<!-- 0 -->
<g id="node1" class="node">
<title>0</title>
<ellipse fill="none" stroke="#000000" stroke-width="2" cx="18" cy="-100.4073" rx="18" ry="18"/>
<text text-anchor="middle" x="18" y="-96.2073" font-family="Times,serif" font-size="14.00" fill="#000000">0</text>
</g>
<!-- 1 -->
<g id="node2" class="node">
<title>1</title>
<ellipse fill="none" stroke="#000000" cx="98" cy="-100.4073" rx="18" ry="18"/>
<text text-anchor="middle" x="98" y="-96.2073" font-family="Times,serif" font-size="14.00" fill="#000000">1</text>
</g>
<!-- 0&#45;&gt;1 -->
<g id="edge1" class="edge">
<title>0&#45;&gt;1</title>
<path fill="none" stroke="#000000" d="M36.1532,-100.4073C46.0749,-100.4073 58.5833,-100.4073 69.7508,-100.4073"/>
<polygon fill="#000000" stroke="#000000" points="69.9186,-103.9074 79.9186,-100.4073 69.9186,-96.9074 69.9186,-103.9074"/>
<text text-anchor="middle" x="58" y="-110.2073" font-family="Times,serif" font-size="14.00" fill="#000000">サ</text>
</g>
<!-- 2 -->
<g id="node3" class="node">
<title>2</title>
<ellipse fill="none" stroke="#000000" cx="178" cy="-100.4073" rx="18" ry="18"/>
<text text-anchor="middle" x="178" y="-96.2073" font-family="Times,serif" font-size="14.00" fill="#000000">2</text>
</g>
<!-- 1&#45;&gt;2 -->
<g id="edge2" class="edge">
<title>1&#45;&gt;2</title>
<path fill="none" stroke="#000000" d="M116.1532,-100.4073C126.0749,-100.4073 138.5833,-100.4073 149.7508,-100.4073"/>
<polygon fill="#000000" stroke="#000000" points="149.9186,-103.9074 159.9186,-100.4073 149.9186,-96.9074 149.9186,-103.9074"/>
<text text-anchor="middle" x="138" y="-110.2073" font-family="Times,serif" font-size="14.00" fill="#000000">ト</text>
</g>
<!-- 3 -->
<g id="node4" class="node">
<title>3</title>
<ellipse fill="none" stroke="#000000" cx="278.6725" cy="-187.4073" rx="25.6818" ry="25.6818"/>
<ellipse fill="none" stroke="#000000" cx="278.6725" cy="-187.4073" rx="29.659" ry="29.659"/>
<text text-anchor="middle" x="278.6725" y="-183.2073" font-family="Times,serif" font-size="14.00" fill="#000000">3/10</text>
</g>
<!-- 2&#45;&gt;3 -->
<g id="edge3" class="edge">
<title>2&#45;&gt;3</title>
<path fill="none" stroke="#000000" d="M191.9981,-112.5043C206.4639,-125.0055 229.5033,-144.9159 248.1931,-161.0674"/>
<polygon fill="#000000" stroke="#000000" points="246.0444,-163.8363 255.8991,-167.7268 250.6214,-158.54 246.0444,-163.8363"/>
<text text-anchor="middle" x="218" y="-148.2073" font-family="Times,serif" font-size="14.00" fill="#000000">ミ</text>
</g>
<!-- 4 -->
<g id="node5" class="node">
<title>4</title>
<ellipse fill="none" stroke="#000000" cx="278.6725" cy="-100.4073" rx="34.8278" ry="34.8278"/>
<ellipse fill="none" stroke="#000000" cx="278.6725" cy="-100.4073" rx="38.8457" ry="38.8457"/>
<text text-anchor="middle" x="278.6725" y="-96.2073" font-family="Times,serif" font-size="14.00" fill="#000000">4/1000</text>
</g>
<!-- 2&#45;&gt;4 -->
<g id="edge4" class="edge">
<title>2&#45;&gt;4</title>
<path fill="none" stroke="#000000" d="M196.4649,-100.4073C205.8603,-100.4073 217.7722,-100.4073 229.5918,-100.4073"/>
<polygon fill="#000000" stroke="#000000" points="229.8894,-103.9074 239.8894,-100.4073 229.8893,-96.9074 229.8894,-103.9074"/>
<text text-anchor="middle" x="218" y="-110.2073" font-family="Times,serif" font-size="14.00" fill="#000000">ウ</text>
</g>
<!-- 5 -->
<g id="node6" class="node">
<title>5</title>
<ellipse fill="none" stroke="#000000" cx="278.6725" cy="-25.4073" rx="18" ry="18"/>
<text text-anchor="middle" x="278.6725" y="-21.2073" font-family="Times,serif" font-size="14.00" fill="#000000">5</text>
</g>
<!-- 2&#45;&gt;5 -->
<g id="edge5" class="edge">
<title>2&#45;&gt;5</title>
<path fill="none" stroke="#000000" d="M192.1306,-89.1481C204.5995,-79.29 223.3316,-64.6668 240,-52.4073 244.7824,-48.8899 249.9577,-45.1993 254.9198,-41.7156"/>
<polygon fill="#000000" stroke="#000000" points="257.2819,-44.3359 263.4904,-35.7508 253.2832,-38.5904 257.2819,-44.3359"/>
<text text-anchor="middle" x="218" y="-82.2073" font-family="Times,serif" font-size="14.00" fill="#000000">ハ</text>
</g>
<!-- 6 -->
<g id="node7" class="node">
<title>6</title>
<ellipse fill="none" stroke="#000000" cx="386.7522" cy="-25.4073" rx="21.3294" ry="21.3294"/>
<ellipse fill="none" stroke="#000000" cx="386.7522" cy="-25.4073" rx="25.3149" ry="25.3149"/>
<text text-anchor="middle" x="386.7522" y="-21.2073" font-family="Times,serif" font-size="14.00" fill="#000000">6/1</text>
</g>
<!-- 5&#45;&gt;6 -->
<g id="edge6" class="edge">
<title>5&#45;&gt;6</title>
<path fill="none" stroke="#000000" d="M297.0067,-25.4073C311.7075,-25.4073 332.7891,-25.4073 350.8263,-25.4073"/>
<polygon fill="#000000" stroke="#000000" points="351.0232,-28.9074 361.0232,-25.4073 351.0232,-21.9074 351.0232,-28.9074"/>
<text text-anchor="middle" x="339.345" y="-35.2073" font-family="Times,serif" font-size="14.00" fill="#000000">ラ</text>
</g>
</g>
</svg>
