<?xml version="1.0" encoding="UTF-8" standalone="no"?>
<!DOCTYPE svg PUBLIC "-//W3C//DTD SVG 1.1//EN"
 "http://www.w3.org/Graphics/SVG/1.1/DTD/svg11.dtd">
<!-- Generated by graphviz version 2.40.1 (20161225.0304)
 -->
<!-- Title: FST Pages: 1 -->
<svg width="274pt" height="297pt"
 viewBox="0.00 0.00 273.74 296.82" xmlns="http://www.w3.org/2000/svg" xmlns:xlink="http://www.w3.org/1999/xlink">
<g id="graph0" class="graph" transform="scale(1 1) rotate(0) translate(4 292.82)">
<title>FST</title>
<polygon fill="#ffffff" stroke="transparent" points="-4,4 -4,-292.82 269.738,-292.82 269.738,4 -4,4"/>
<!-- 0 -->
<g id="node1" class="node">
<title>0</title>
<ellipse fill="none" stroke="#000000" stroke-width="2" cx="110.7448" cy="-18" rx="18" ry="18"/>
<text text-anchor="middle" x="110.7448" y="-13.8" font-family="Times,serif" font-size="14.00" fill="#000000">0</text>
</g>
<!-- 0&#45;&gt;0 -->
<g id="edge3" class="edge">
<title>0&#45;&gt;0</title>
<path fill="none" stroke="#000000" d="M125.5365,-7.292C136.1613,-3.8057 146.7448,-7.375 146.7448,-18 146.7448,-25.1387 141.9673,-29.0923 135.6095,-29.8609"/>
<polygon fill="#000000" stroke="#000000" points="135.8696,-26.3679 125.5365,-28.708 135.0736,-33.3225 135.8696,-26.3679"/>
<text text-anchor="middle" x="157.6345" y="-18.21" font-family="Times,serif" font-size="14.00" fill="#000000">i:イ</text>
</g>
<!-- 1 -->
<g id="node2" class="node">
<title>1</title>
<ellipse fill="none" stroke="#000000" cx="136.7448" cy="-148.82" rx="18" ry="18"/>
<text text-anchor="middle" x="136.7448" y="-144.62" font-family="Times,serif" font-size="14.00" fill="#000000">1</text>
</g>
<!-- 0&#45;&gt;1 -->
<g id="edge1" class="edge">
<title>0&#45;&gt;1</title>
<path fill="none" stroke="#000000" d="M124.4269,-29.7201C134.9763,-39.7242 148.7449,-55.1379 154.7448,-72 160.7342,-88.8325 155.9481,-108.454 149.8117,-123.6532"/>
<polygon fill="#000000" stroke="#000000" points="146.5521,-122.3696 145.684,-132.9288 152.9474,-125.2156 146.5521,-122.3696"/>
<text text-anchor="middle" x="169.4138" y="-83.62" font-family="Times,serif" font-size="14.00" fill="#000000">s:シ</text>
</g>
<!-- 3 -->
<g id="node3" class="node">
<title>3</title>
<ellipse fill="none" stroke="#000000" cx="65.7448" cy="-148.82" rx="18" ry="18"/>
<text text-anchor="middle" x="65.7448" y="-144.62" font-family="Times,serif" font-size="14.00" fill="#000000">3</text>
</g>
<!-- 0&#45;&gt;3 -->
<g id="edge2" class="edge">
<title>0&#45;&gt;3</title>
<path fill="none" stroke="#000000" d="M94.7787,-26.7165C79.955,-35.8176 58.834,-51.6079 49.6413,-72 42.2911,-88.3049 46.7106,-108.0835 52.7634,-123.4881"/>
<polygon fill="#000000" stroke="#000000" points="49.6624,-125.1332 56.8695,-132.8991 56.0783,-122.3338 49.6624,-125.1332"/>
<text text-anchor="middle" x="58.2966" y="-79.21" font-family="Times,serif" font-size="14.00" fill="#000000">n:ε</text>
</g>
<!-- 4 -->
<g id="node4" class="node">
<title>4</title>
<ellipse fill="none" stroke="#000000" cx="214.7448" cy="-148.82" rx="18" ry="18"/>
<text text-anchor="middle" x="214.7448" y="-144.62" font-family="Times,serif" font-size="14.00" fill="#000000">4</text>
</g>
<!-- 0&#45;&gt;4 -->
<g id="edge4" class="edge">
<title>0&#45;&gt;4</title>
<path fill="none" stroke="#000000" d="M126.9899,-26.2392C143.5652,-35.386 169.0224,-51.5886 184.7448,-72 195.9973,-86.6083 203.5207,-105.9608 208.2191,-121.5868"/>
<polygon fill="#000000" stroke="#000000" points="204.8509,-122.5383 210.9096,-131.2298 211.5934,-120.6571 204.8509,-122.5383"/>
<text text-anchor="middle" x="208.7966" y="-83.62" font-family="Times,serif" font-size="14.00" fill="#000000">c:チ</text>
</g>
<!-- 2 -->
<g id="node5" class="node">
<title>2</title>
<ellipse fill="none" stroke="#000000" cx="82.7448" cy="-270.82" rx="18" ry="18"/>
<text text-anchor="middle" x="82.7448" y="-266.62" font-family="Times,serif" font-size="14.00" fill="#000000">2</text>
</g>
<!-- 1&#45;&gt;2 -->
<g id="edge5" class="edge">
<title>1&#45;&gt;2</title>
<path fill="none" stroke="#000000" d="M129.3496,-165.5278C120.2609,-186.0615 104.7419,-221.123 94.1286,-245.1012"/>
<polygon fill="#000000" stroke="#000000" points="90.8978,-243.7531 90.0507,-254.314 97.2988,-246.5864 90.8978,-243.7531"/>
<text text-anchor="middle" x="120.2966" y="-205.62" font-family="Times,serif" font-size="14.00" fill="#000000">h:ε</text>
</g>
<!-- 3&#45;&gt;0 -->
<g id="edge7" class="edge">
<title>3&#45;&gt;0</title>
<path fill="none" stroke="#000000" d="M70.9227,-131.3281C75.6313,-115.6914 82.9034,-92.1964 89.9655,-72 93.1454,-62.906 96.8591,-53.0469 100.2603,-44.2724"/>
<polygon fill="#000000" stroke="#000000" points="103.5334,-45.5127 103.9226,-34.925 97.0158,-42.9591 103.5334,-45.5127"/>
<text text-anchor="middle" x="101.6345" y="-83.62" font-family="Times,serif" font-size="14.00" fill="#000000">i:ニ</text>
</g>
<!-- 3&#45;&gt;0 -->
<g id="edge8" class="edge">
<title>3&#45;&gt;0</title>
<path fill="none" stroke="#000000" d="M80.0356,-137.2292C91.0567,-127.3001 105.4473,-111.9243 111.7448,-94.82 117.4557,-79.3093 117.4033,-60.8144 115.8291,-45.8589"/>
<polygon fill="#000000" stroke="#000000" points="119.2641,-45.1383 114.4746,-35.6879 112.3254,-46.0624 119.2641,-45.1383"/>
<text text-anchor="middle" x="126.9509" y="-83.62" font-family="Times,serif" font-size="14.00" fill="#000000">&#39;:ン</text>
</g>
<!-- 3&#45;&gt;0 -->
<g id="edge9" class="edge">
<title>3&#45;&gt;0</title>
<path fill="none" stroke="#000000" d="M51.1238,-138.2526C32.6632,-123.5523 4.8763,-96.0268 18.6413,-72 32.4025,-47.9798 61.4542,-33.6074 83.2723,-25.801"/>
<polygon fill="#000000" stroke="#000000" points="84.6144,-29.0434 93.0046,-22.5738 82.4112,-22.3992 84.6144,-29.0434"/>
<text text-anchor="middle" x="30.7966" y="-83.62" font-family="Times,serif" font-size="14.00" fill="#000000">ε:ン</text>
</g>
<!-- 5 -->
<g id="node6" class="node">
<title>5</title>
<ellipse fill="none" stroke="#000000" cx="232.7448" cy="-270.82" rx="18" ry="18"/>
<text text-anchor="middle" x="232.7448" y="-266.62" font-family="Times,serif" font-size="14.00" fill="#000000">5</text>
</g>
<!-- 4&#45;&gt;5 -->
<g id="edge10" class="edge">
<title>4&#45;&gt;5</title>
<path fill="none" stroke="#000000" d="M217.4008,-166.8216C220.352,-186.8242 225.1549,-219.3774 228.6014,-242.7369"/>
<polygon fill="#000000" stroke="#000000" points="225.1558,-243.3627 230.078,-252.7447 232.0808,-242.3409 225.1558,-243.3627"/>
<text text-anchor="middle" x="232.2966" y="-205.62" font-family="Times,serif" font-size="14.00" fill="#000000">h:ε</text>
</g>
<!-- 2&#45;&gt;0 -->
<g id="edge6" class="edge">
<title>2&#45;&gt;0</title>
<path fill="none" stroke="#000000" d="M70.4222,-257.5012C41.3249,-224.3726 -26.4229,-136.2952 11.7448,-72 27.0667,-46.1896 59.5435,-31.9264 83.1325,-24.6367"/>
<polygon fill="#000000" stroke="#000000" points="84.2781,-27.9497 92.9365,-21.8438 82.3602,-21.2175 84.2781,-27.9497"/>
<text text-anchor="middle" x="18.7414" y="-144.62" font-family="Times,serif" font-size="14.00" fill="#000000">i:ε</text>
</g>
<!-- 5&#45;&gt;0 -->
<g id="edge11" class="edge">
<title>5&#45;&gt;0</title>
<path fill="none" stroke="#000000" d="M238.3564,-253.427C249.4146,-215.4572 269.288,-124.3622 224.7448,-72 202.4207,-45.7571 164.4808,-31.3751 138.5495,-24.187"/>
<polygon fill="#000000" stroke="#000000" points="139.145,-20.726 128.5874,-21.6133 137.394,-27.5035 139.145,-20.726"/>
<text text-anchor="middle" x="258.7414" y="-144.62" font-family="Times,serif" font-size="14.00" fill="#000000">i:ε</text>
</g>
</g>
</svg>
