<?xml version="1.0" encoding="UTF-8" standalone="no"?>
<!DOCTYPE svg PUBLIC "-//W3C//DTD SVG 1.1//EN"
 "http://www.w3.org/Graphics/SVG/1.1/DTD/svg11.dtd">
<!-- Generated by graphviz version 2.40.1 (20161225.0304)
 -->
<!-- Title: FST Pages: 1 -->
<svg width="612pt" height="229pt"
 viewBox="0.00 0.00 612.00 228.60" xmlns="http://www.w3.org/2000/svg" xmlns:xlink="http://www.w3.org/1999/xlink">
<g id="graph0" class="graph" transform="scale(.7423 .7423) rotate(0) translate(4 303.9469)">
<title>FST</title>
<polygon fill="#ffffff" stroke="transparent" points="-4,4 -4,-303.9469 820.4178,-303.9469 820.4178,4 -4,4"/>
<!-- 0 -->
<g id="node1" class="node">
<title>0</title>
<ellipse fill="none" stroke="#000000" stroke-width="2" cx="18" cy="-119.1179" rx="18" ry="18"/>
<text text-anchor="middle" x="18" y="-114.9179" font-family="Times,serif" font-size="14.00" fill="#000000">0</text>
</g>
<!-- 1 -->
<g id="node2" class="node">
<title>1</title>
<ellipse fill="none" stroke="#000000" cx="107.3379" cy="-119.1179" rx="18" ry="18"/>
<text text-anchor="middle" x="107.3379" y="-114.9179" font-family="Times,serif" font-size="14.00" fill="#000000">1</text>
</g>
<!-- 0&#45;&gt;1 -->
<g id="edge1" class="edge">
<title>0&#45;&gt;1</title>
<path fill="none" stroke="#000000" d="M36.0789,-119.1179C48.4302,-119.1179 65.0461,-119.1179 79.1259,-119.1179"/>
<polygon fill="#000000" stroke="#000000" points="79.286,-122.618 89.2859,-119.1179 79.2859,-115.618 79.286,-122.618"/>
<text text-anchor="middle" x="62.6689" y="-130.7379" font-family="Times,serif" font-size="14.00" fill="#000000">s:サ</text>
</g>
<!-- 2 -->
<g id="node3" class="node">
<title>2</title>
<ellipse fill="none" stroke="#000000" cx="189.6553" cy="-119.1179" rx="18" ry="18"/>
<text text-anchor="middle" x="189.6553" y="-114.9179" font-family="Times,serif" font-size="14.00" fill="#000000">2</text>
</g>
<!-- 1&#45;&gt;2 -->
<g id="edge2" class="edge">
<title>1&#45;&gt;2</title>
<path fill="none" stroke="#000000" d="M125.6068,-119.1179C136.051,-119.1179 149.3785,-119.1179 161.1687,-119.1179"/>
<polygon fill="#000000" stroke="#000000" points="161.4375,-122.618 171.4374,-119.1179 161.4374,-115.618 161.4375,-122.618"/>
<text text-anchor="middle" x="148.4966" y="-121.9179" font-family="Times,serif" font-size="14.00" fill="#000000">a:ε</text>
</g>
<!-- 3 -->
<g id="node4" class="node">
<title>3</title>
<ellipse fill="none" stroke="#000000" cx="277.4346" cy="-119.1179" rx="18" ry="18"/>
<text text-anchor="middle" x="277.4346" y="-114.9179" font-family="Times,serif" font-size="14.00" fill="#000000">3</text>
</g>
<!-- 2&#45;&gt;3 -->
<g id="edge3" class="edge">
<title>2&#45;&gt;3</title>
<path fill="none" stroke="#000000" d="M207.8432,-119.1179C219.7305,-119.1179 235.5016,-119.1179 249.0243,-119.1179"/>
<polygon fill="#000000" stroke="#000000" points="249.27,-122.618 259.2699,-119.1179 249.2699,-115.618 249.27,-122.618"/>
<text text-anchor="middle" x="233.5449" y="-130.7379" font-family="Times,serif" font-size="14.00" fill="#000000">t:ト</text>
</g>
<!-- 4 -->
<g id="node5" class="node">
<title>4</title>
<ellipse fill="none" stroke="#000000" cx="360.5381" cy="-119.1179" rx="18" ry="18"/>
<text text-anchor="middle" x="360.5381" y="-114.9179" font-family="Times,serif" font-size="14.00" fill="#000000">4</text>
</g>
<!-- 3&#45;&gt;4 -->
<g id="edge4" class="edge">
<title>3&#45;&gt;4</title>
<path fill="none" stroke="#000000" d="M295.4668,-119.1179C306.1741,-119.1179 319.9882,-119.1179 332.1321,-119.1179"/>
<polygon fill="#000000" stroke="#000000" points="332.2541,-122.618 342.2541,-119.1179 332.254,-115.618 332.2541,-122.618"/>
<text text-anchor="middle" x="318.9863" y="-121.9179" font-family="Times,serif" font-size="14.00" fill="#000000">o:ε</text>
</g>
<!-- 5 -->
<g id="node6" class="node">
<title>5</title>
<ellipse fill="none" stroke="#000000" cx="475.9899" cy="-269.1179" rx="18" ry="18"/>
<text text-anchor="middle" x="475.9899" y="-264.9179" font-family="Times,serif" font-size="14.00" fill="#000000">5</text>
</g>
<!-- 4&#45;&gt;5 -->
<g id="edge5" class="edge">
<title>4&#45;&gt;5</title>
<path fill="none" stroke="#000000" d="M362.8827,-137.1174C366.4079,-158.2 374.7815,-193.2704 393.5381,-217.1179 408.192,-235.7491 431.4921,-249.559 449.5909,-258.2461"/>
<polygon fill="#000000" stroke="#000000" points="448.4716,-261.5823 459.0227,-262.5434 451.3739,-255.2123 448.4716,-261.5823"/>
<text text-anchor="middle" x="407.9277" y="-252.7379" font-family="Times,serif" font-size="14.00" fill="#000000">m:ミ</text>
</g>
<!-- 6 -->
<g id="node7" class="node">
<title>6</title>
<ellipse fill="none" stroke="#000000" cx="475.9899" cy="-210.1179" rx="18" ry="18"/>
<text text-anchor="middle" x="475.9899" y="-205.9179" font-family="Times,serif" font-size="14.00" fill="#000000">6</text>
</g>
<!-- 4&#45;&gt;6 -->
<g id="edge6" class="edge">
<title>4&#45;&gt;6</title>
<path fill="none" stroke="#000000" d="M367.6142,-136.0702C373.2074,-147.7551 381.9946,-162.9519 393.5381,-173.1179 409.4835,-187.1604 431.6316,-196.7 448.958,-202.5711"/>
<polygon fill="#000000" stroke="#000000" points="447.9286,-205.9164 458.519,-205.6103 450.0492,-199.2453 447.9286,-205.9164"/>
<text text-anchor="middle" x="407.9277" y="-201.7379" font-family="Times,serif" font-size="14.00" fill="#000000">h:ハ</text>
</g>
<!-- 7 -->
<g id="node8" class="node">
<title>7</title>
<ellipse fill="none" stroke="#000000" cx="475.9899" cy="-73.1179" rx="34.8278" ry="34.8278"/>
<ellipse fill="none" stroke="#000000" cx="475.9899" cy="-73.1179" rx="38.8457" ry="38.8457"/>
<text text-anchor="middle" x="475.9899" y="-68.9179" font-family="Times,serif" font-size="14.00" fill="#000000">7/1000</text>
</g>
<!-- 4&#45;&gt;7 -->
<g id="edge7" class="edge">
<title>4&#45;&gt;7</title>
<path fill="none" stroke="#000000" d="M373.5785,-131.5351C379.2521,-136.1107 386.2623,-140.7519 393.5381,-143.1179 405.7019,-147.0733 410.8467,-148.7772 422.3174,-143.1179 434.4651,-137.1246 444.6258,-126.916 452.7225,-116.1206"/>
<polygon fill="#000000" stroke="#000000" points="455.6669,-118.0171 458.5105,-107.8109 449.9229,-114.0161 455.6669,-118.0171"/>
<text text-anchor="middle" x="407.9277" y="-157.7379" font-family="Times,serif" font-size="14.00" fill="#000000">u:ウ</text>
</g>
<!-- 4&#45;&gt;7 -->
<g id="edge8" class="edge">
<title>4&#45;&gt;7</title>
<path fill="none" stroke="#000000" d="M377.7175,-113.4044C390.1889,-109.1589 407.4169,-103.0917 422.3174,-97.1179 425.3018,-95.9214 428.3643,-94.656 431.4407,-93.3567"/>
<polygon fill="#000000" stroke="#000000" points="432.8462,-96.5622 440.6466,-89.3925 430.0776,-90.133 432.8462,-96.5622"/>
<text text-anchor="middle" x="407.9277" y="-118.7379" font-family="Times,serif" font-size="14.00" fill="#000000">ε:ウ</text>
</g>
<!-- 4&#45;&gt;7 -->
<g id="edge9" class="edge">
<title>4&#45;&gt;7</title>
<path fill="none" stroke="#000000" d="M366.933,-102.2684C372.2052,-90.9865 380.8887,-77.0156 393.5381,-70.2978 403.9089,-64.7902 416.0935,-63.0994 427.8665,-63.3457"/>
<polygon fill="#000000" stroke="#000000" points="427.843,-66.8516 438.0506,-64.0135 428.3011,-59.8666 427.843,-66.8516"/>
<text text-anchor="middle" x="407.9277" y="-81.7379" font-family="Times,serif" font-size="14.00" fill="#000000">h:ウ</text>
</g>
<!-- 4&#45;&gt;7 -->
<g id="edge10" class="edge">
<title>4&#45;&gt;7</title>
<path fill="none" stroke="#000000" d="M362.0211,-100.9527C364.7098,-81.2593 372.272,-50.7164 393.5381,-36.2978 407.5306,-26.8108 424.365,-31.8496 439.1642,-40.86"/>
<polygon fill="#000000" stroke="#000000" points="437.3561,-43.862 447.6057,-46.5443 441.2659,-38.0557 437.3561,-43.862"/>
<text text-anchor="middle" x="407.9277" y="-48.7379" font-family="Times,serif" font-size="14.00" fill="#000000">̂:ウ</text>
</g>
<!-- 4&#45;&gt;7 -->
<g id="edge11" class="edge">
<title>4&#45;&gt;7</title>
<path fill="none" stroke="#000000" d="M363.0858,-101.2873C367.6389,-72.259 378.1578,-16.8523 393.5381,-5.2978 413.2485,9.5096 434.7347,-9.3773 450.8308,-30.9432"/>
<polygon fill="#000000" stroke="#000000" points="448.0903,-33.1299 456.7209,-39.2751 453.8063,-29.089 448.0903,-33.1299"/>
<text text-anchor="middle" x="407.9277" y="-17.7379" font-family="Times,serif" font-size="14.00" fill="#000000">̄:ウ</text>
</g>
<!-- 9 -->
<g id="node9" class="node">
<title>9</title>
<ellipse fill="none" stroke="#000000" cx="590.8087" cy="-270.1179" rx="25.6818" ry="25.6818"/>
<ellipse fill="none" stroke="#000000" cx="590.8087" cy="-270.1179" rx="29.659" ry="29.659"/>
<text text-anchor="middle" x="590.8087" y="-265.9179" font-family="Times,serif" font-size="14.00" fill="#000000">9/10</text>
</g>
<!-- 5&#45;&gt;9 -->
<g id="edge12" class="edge">
<title>5&#45;&gt;9</title>
<path fill="none" stroke="#000000" d="M494.1833,-269.2763C509.2987,-269.408 531.3616,-269.6001 550.5902,-269.7676"/>
<polygon fill="#000000" stroke="#000000" points="550.5961,-273.2677 560.6262,-269.855 550.6571,-266.2679 550.5961,-273.2677"/>
<text text-anchor="middle" x="537.821" y="-271.9179" font-family="Times,serif" font-size="14.00" fill="#000000">i:ε</text>
</g>
<!-- 8 -->
<g id="node10" class="node">
<title>8</title>
<ellipse fill="none" stroke="#000000" cx="590.8087" cy="-204.1179" rx="18" ry="18"/>
<text text-anchor="middle" x="590.8087" y="-199.9179" font-family="Times,serif" font-size="14.00" fill="#000000">8</text>
</g>
<!-- 6&#45;&gt;8 -->
<g id="edge13" class="edge">
<title>6&#45;&gt;8</title>
<path fill="none" stroke="#000000" d="M494.1833,-209.1671C512.5755,-208.206 541.254,-206.7074 562.5963,-205.5921"/>
<polygon fill="#000000" stroke="#000000" points="562.8968,-209.0813 572.7005,-205.0641 562.5314,-202.0908 562.8968,-209.0813"/>
<text text-anchor="middle" x="537.821" y="-209.9179" font-family="Times,serif" font-size="14.00" fill="#000000">a:ε</text>
</g>
<!-- 10 -->
<g id="node11" class="node">
<title>10</title>
<ellipse fill="none" stroke="#000000" cx="692.1398" cy="-204.1179" rx="18.9007" ry="18.9007"/>
<text text-anchor="middle" x="692.1398" y="-199.9179" font-family="Times,serif" font-size="14.00" fill="#000000">10</text>
</g>
<!-- 8&#45;&gt;10 -->
<g id="edge14" class="edge">
<title>8&#45;&gt;10</title>
<path fill="none" stroke="#000000" d="M608.9247,-204.1179C623.916,-204.1179 645.5004,-204.1179 662.9298,-204.1179"/>
<polygon fill="#000000" stroke="#000000" points="663.149,-207.618 673.149,-204.1179 663.1489,-200.618 663.149,-207.618"/>
<text text-anchor="middle" x="646.9136" y="-215.7379" font-family="Times,serif" font-size="14.00" fill="#000000">r:ラ</text>
</g>
<!-- 11 -->
<g id="node12" class="node">
<title>11</title>
<ellipse fill="none" stroke="#000000" cx="786.9126" cy="-204.1179" rx="25.5096" ry="25.5096"/>
<ellipse fill="none" stroke="#000000" cx="786.9126" cy="-204.1179" rx="29.5103" ry="29.5103"/>
<text text-anchor="middle" x="786.9126" y="-199.9179" font-family="Times,serif" font-size="14.00" fill="#000000">11/1</text>
</g>
<!-- 10&#45;&gt;11 -->
<g id="edge15" class="edge">
<title>10&#45;&gt;11</title>
<path fill="none" stroke="#000000" d="M711.3185,-204.1179C721.629,-204.1179 734.7407,-204.1179 747.1385,-204.1179"/>
<polygon fill="#000000" stroke="#000000" points="747.3077,-207.618 757.3076,-204.1179 747.3076,-200.618 747.3077,-207.618"/>
<text text-anchor="middle" x="734.2488" y="-206.9179" font-family="Times,serif" font-size="14.00" fill="#000000">a:ε</text>
</g>
</g>
</svg>
